<svg id="Layer_1" data-name="Layer 1" xmlns="http://www.w3.org/2000/svg" viewBox="0 0 782 255"><defs><style>.cls-1{fill:#00567d;}.cls-2{fill:#ffb700;}</style></defs><title>CSS-Logo</title><path class="cls-1" d="M81.74,219.27l-4.2,4a13,13,0,0,0-9.66-4.54,10.58,10.58,0,0,0-10.73,10.73,11.28,11.28,0,0,0,1.37,5.61,9.84,9.84,0,0,0,3.88,3.85,11.27,11.27,0,0,0,5.58,1.4,11.5,11.5,0,0,0,4.78-1,17.19,17.19,0,0,0,4.76-3.56L81.61,240A22.37,22.37,0,0,1,75,244.78a18.06,18.06,0,0,1-7.11,1.32,16.37,16.37,0,0,1-12.06-4.67,16.17,16.17,0,0,1-4.69-12,16.39,16.39,0,0,1,2.14-8.4,15.88,15.88,0,0,1,6.12-5.9A17.26,17.26,0,0,1,68,212.92a18.2,18.2,0,0,1,13.76,6.35Z"/><path class="cls-1" d="M97.33,221.34a12.4,12.4,0,0,1,6.22,1.65,12.13,12.13,0,0,1,6.17,10.61,12.28,12.28,0,0,1-1.64,6.18,11.86,11.86,0,0,1-4.48,4.5,12.37,12.37,0,0,1-6.25,1.62,11.66,11.66,0,0,1-8.58-3.57,12.39,12.39,0,0,1,.46-17.81A11.73,11.73,0,0,1,97.33,221.34Zm.1,5.52a6,6,0,0,0-4.55,1.9,6.75,6.75,0,0,0-1.82,4.86,6.88,6.88,0,0,0,1.8,4.94,6,6,0,0,0,4.55,1.89,6.07,6.07,0,0,0,4.58-1.91,7.53,7.53,0,0,0,0-9.8A6.08,6.08,0,0,0,97.43,226.86Z"/><path class="cls-1" d="M114.47,221.94h5.86v2.68a10,10,0,0,1,3.34-2.47,9.76,9.76,0,0,1,4-.82,7.44,7.44,0,0,1,4,1.07,7.76,7.76,0,0,1,2.84,3.13,9.48,9.48,0,0,1,3.43-3.13,9.34,9.34,0,0,1,4.44-1.07,8.23,8.23,0,0,1,4.38,1.16,6.71,6.71,0,0,1,2.72,3,16.18,16.18,0,0,1,.83,6.08v13.7h-5.9V233.45q0-4-1-5.38a3.39,3.39,0,0,0-3-1.41,4.5,4.5,0,0,0-2.69.86,5.09,5.09,0,0,0-1.77,2.37,14.78,14.78,0,0,0-.58,4.86V245.3h-5.9V234a15.92,15.92,0,0,0-.46-4.54,4.12,4.12,0,0,0-1.39-2.09,3.66,3.66,0,0,0-2.24-.69,4.4,4.4,0,0,0-2.66.87,5.16,5.16,0,0,0-1.79,2.44,15.06,15.06,0,0,0-.59,4.94V245.3h-5.86Z"/><path class="cls-1" d="M161.67,221.94v2.58a11,11,0,0,1,3.44-2.39,9.92,9.92,0,0,1,4-.79,10.2,10.2,0,0,1,7.77,3.46,12.54,12.54,0,0,1,3.2,8.87,12.24,12.24,0,0,1-3.31,8.73,10.42,10.42,0,0,1-7.84,3.51,9.74,9.74,0,0,1-3.76-.72,11.44,11.44,0,0,1-3.46-2.35v11h-5.82V221.94Zm6.16,4.81a6.12,6.12,0,0,0-4.6,1.89,6.81,6.81,0,0,0-1.83,4.94,7,7,0,0,0,1.83,5,6.07,6.07,0,0,0,4.6,1.92,6,6,0,0,0,4.52-2,7,7,0,0,0,1.84-5,6.91,6.91,0,0,0-1.8-4.93A6,6,0,0,0,167.84,226.75Z"/><path class="cls-1" d="M184.24,212.92h5.86V245.3h-5.86Z"/><path class="cls-1" d="M197.72,212.32a3.59,3.59,0,0,1,2.64,1.12,3.71,3.71,0,0,1,1.1,2.71,3.66,3.66,0,0,1-1.09,2.67,3.55,3.55,0,0,1-2.61,1.11,3.59,3.59,0,0,1-2.67-1.13,3.77,3.77,0,0,1-1.1-2.74,3.73,3.73,0,0,1,3.73-3.74Zm-2.93,9.62h5.86V245.3h-5.86Z"/><path class="cls-1" d="M223.22,221.94h5.86V245.3h-5.86v-2.47a11.51,11.51,0,0,1-3.44,2.35,9.64,9.64,0,0,1-3.74.72,10.4,10.4,0,0,1-7.83-3.51,12.26,12.26,0,0,1-3.3-8.73,12.55,12.55,0,0,1,3.2-8.87,10.18,10.18,0,0,1,7.77-3.46,9.9,9.9,0,0,1,3.95.79,10.79,10.79,0,0,1,3.41,2.39Zm-6.16,4.81a5.93,5.93,0,0,0-4.52,1.92,6.93,6.93,0,0,0-1.8,4.93,7,7,0,0,0,1.83,5,5.93,5.93,0,0,0,4.51,2,6,6,0,0,0,4.58-1.92,7,7,0,0,0,1.82-5,6.82,6.82,0,0,0-1.82-4.94A6.12,6.12,0,0,0,217.06,226.75Z"/><path class="cls-1" d="M235,221.94h5.86v2.39a14,14,0,0,1,3.61-2.34,8.73,8.73,0,0,1,3.31-.66,8,8,0,0,1,5.9,2.43q2,2.06,2,6.1V245.3h-5.8V235.07a25.84,25.84,0,0,0-.38-5.56,3.8,3.8,0,0,0-1.31-2.09,3.66,3.66,0,0,0-2.3-.72,4.31,4.31,0,0,0-3.05,1.19,6.34,6.34,0,0,0-1.77,3.29,26.72,26.72,0,0,0-.26,4.74v9.37H235Z"/><path class="cls-1" d="M284.27,226.66l-4.88,2.68a8.31,8.31,0,0,0-2.72-2,8.18,8.18,0,0,0-3.15-.56,7.33,7.33,0,0,0-5.32,2,6.68,6.68,0,0,0-2,5,6.46,6.46,0,0,0,2,4.87,7.09,7.09,0,0,0,5.14,1.89,7.47,7.47,0,0,0,6.13-2.68L284,241q-3.76,4.89-10.61,4.89-6.16,0-9.65-3.65A12.14,12.14,0,0,1,266.69,223a14.13,14.13,0,0,1,6.8-1.63,13.78,13.78,0,0,1,6.25,1.39A11.86,11.86,0,0,1,284.27,226.66Z"/><path class="cls-1" d="M313,235.32H294.13a6.27,6.27,0,0,0,2.18,4,6.83,6.83,0,0,0,4.52,1.47,7.81,7.81,0,0,0,5.65-2.3l4.94,2.32a11.65,11.65,0,0,1-4.42,3.88,13.84,13.84,0,0,1-6.12,1.26,12.09,12.09,0,0,1-9-3.47,11.81,11.81,0,0,1-3.46-8.69,12.2,12.2,0,0,1,3.45-8.88,11.58,11.58,0,0,1,8.64-3.53,12,12,0,0,1,9,3.53A12.76,12.76,0,0,1,313,234.2Zm-5.86-4.62a5.88,5.88,0,0,0-2.29-3.18,6.65,6.65,0,0,0-4-1.22,7,7,0,0,0-4.3,1.37,7.66,7.66,0,0,0-2.15,3Z"/><path class="cls-1" d="M347.23,218l-4.45,3.93q-2.34-3.26-4.78-3.26a2.91,2.91,0,0,0-1.94.63,1.85,1.85,0,0,0-.75,1.43,2.43,2.43,0,0,0,.54,1.5,40.74,40.74,0,0,0,4.41,4.06q3.44,2.88,4.17,3.63a12.61,12.61,0,0,1,2.59,3.53,8.82,8.82,0,0,1,.77,3.68,8.44,8.44,0,0,1-2.69,6.42,9.81,9.81,0,0,1-7,2.53,10.43,10.43,0,0,1-5.88-1.65,13.07,13.07,0,0,1-4.29-5.2L333,236.2q2.28,4.19,5.25,4.19a3.87,3.87,0,0,0,2.6-.9,2.69,2.69,0,0,0,1.05-2.08,3.59,3.59,0,0,0-.8-2.15,23,23,0,0,0-3.51-3.29q-5.16-4.21-6.67-6.5a8.25,8.25,0,0,1-1.51-4.56,7.46,7.46,0,0,1,2.51-5.64,8.69,8.69,0,0,1,6.18-2.35,9.75,9.75,0,0,1,4.5,1.09A16.44,16.44,0,0,1,347.23,218Z"/><path class="cls-1" d="M363.86,221.34a12.4,12.4,0,0,1,6.22,1.65,12.13,12.13,0,0,1,6.17,10.61,12.28,12.28,0,0,1-1.64,6.18,11.86,11.86,0,0,1-4.48,4.5,12.37,12.37,0,0,1-6.25,1.62,11.66,11.66,0,0,1-8.58-3.57,12.39,12.39,0,0,1,.46-17.81A11.73,11.73,0,0,1,363.86,221.34Zm.1,5.52a6,6,0,0,0-4.55,1.9,6.75,6.75,0,0,0-1.82,4.86,6.88,6.88,0,0,0,1.8,4.94,6,6,0,0,0,4.55,1.89,6.07,6.07,0,0,0,4.58-1.91,7.53,7.53,0,0,0,0-9.8A6.08,6.08,0,0,0,364,226.86Z"/><path class="cls-1" d="M380.39,212.92h5.86V245.3h-5.86Z"/><path class="cls-1" d="M391.56,221.94h5.93v11.25a15.56,15.56,0,0,0,.45,4.56,4,4,0,0,0,1.45,2,4.16,4.16,0,0,0,2.47.71,4.3,4.3,0,0,0,2.48-.7,4.07,4.07,0,0,0,1.52-2.05,15.61,15.61,0,0,0,.37-4.32V221.94h5.86v9.9q0,6.12-1,8.38a9.14,9.14,0,0,1-3.48,4.22,10.64,10.64,0,0,1-5.84,1.47,10.34,10.34,0,0,1-6.21-1.72,9.07,9.07,0,0,1-3.34-4.79,29.11,29.11,0,0,1-.69-7.73Z"/><path class="cls-1" d="M418.68,213.33h5.86v8.61H428v5h-3.48V245.3h-5.86V227h-3v-5h3Z"/><path class="cls-1" d="M433.45,212.32a3.59,3.59,0,0,1,2.64,1.12,3.71,3.71,0,0,1,1.1,2.71,3.66,3.66,0,0,1-1.09,2.67,3.54,3.54,0,0,1-2.61,1.11,3.59,3.59,0,0,1-2.67-1.13,3.77,3.77,0,0,1-1.1-2.74,3.73,3.73,0,0,1,3.73-3.74Zm-2.93,9.62h5.87V245.3h-5.87Z"/><path class="cls-1" d="M452.68,221.34a12.4,12.4,0,0,1,6.22,1.65,12.13,12.13,0,0,1,6.17,10.61,12.3,12.3,0,0,1-1.64,6.18,11.87,11.87,0,0,1-4.48,4.5,12.37,12.37,0,0,1-6.25,1.62,11.65,11.65,0,0,1-8.58-3.57,12.39,12.39,0,0,1,.46-17.81A11.73,11.73,0,0,1,452.68,221.34Zm.1,5.52a6,6,0,0,0-4.55,1.9,6.75,6.75,0,0,0-1.82,4.86,6.88,6.88,0,0,0,1.8,4.94,6,6,0,0,0,4.55,1.89,6.08,6.08,0,0,0,4.58-1.91,7.54,7.54,0,0,0,0-9.8A6.07,6.07,0,0,0,452.77,226.86Z"/><path class="cls-1" d="M469.86,221.94h5.86v2.39a14.07,14.07,0,0,1,3.62-2.34,8.72,8.72,0,0,1,3.31-.66,8,8,0,0,1,5.9,2.43q2,2.06,2,6.1V245.3h-5.8V235.07a25.84,25.84,0,0,0-.38-5.56,3.8,3.8,0,0,0-1.31-2.09,3.66,3.66,0,0,0-2.3-.72,4.31,4.31,0,0,0-3.05,1.19,6.33,6.33,0,0,0-1.77,3.29,26.45,26.45,0,0,0-.26,4.74v9.37h-5.86Z"/><path class="cls-1" d="M510.55,225.2l-3.63,3.63q-2.21-2.19-4-2.19a2.52,2.52,0,0,0-1.55.42,1.25,1.25,0,0,0-.2,1.91,6.58,6.58,0,0,0,1.75,1.08l2.15,1.07a12.61,12.61,0,0,1,4.66,3.41,7.11,7.11,0,0,1-1,9.28,8.77,8.77,0,0,1-6.13,2.08,9.74,9.74,0,0,1-8.16-4L498,238a8.31,8.31,0,0,0,2.41,1.94,5.35,5.35,0,0,0,2.46.74,2.94,2.94,0,0,0,1.87-.56,1.63,1.63,0,0,0,.71-1.29q0-1.35-2.56-2.64l-2-1q-5.67-2.86-5.67-7.15a6.21,6.21,0,0,1,2.14-4.74,7.77,7.77,0,0,1,5.47-2,9.46,9.46,0,0,1,7.69,3.87Z"/><path class="cls-1" d="M545.12,218l-4.45,3.93q-2.35-3.26-4.78-3.26a2.91,2.91,0,0,0-1.94.63,1.85,1.85,0,0,0-.75,1.43,2.43,2.43,0,0,0,.54,1.5,40.63,40.63,0,0,0,4.41,4.06q3.45,2.88,4.18,3.63a12.64,12.64,0,0,1,2.59,3.53,8.83,8.83,0,0,1,.77,3.68,8.44,8.44,0,0,1-2.69,6.42,9.81,9.81,0,0,1-7,2.53,10.44,10.44,0,0,1-5.88-1.65,13.08,13.08,0,0,1-4.29-5.2l5.06-3.05q2.28,4.19,5.25,4.19a3.87,3.87,0,0,0,2.6-.9,2.68,2.68,0,0,0,1.05-2.08,3.58,3.58,0,0,0-.79-2.15,23.11,23.11,0,0,0-3.51-3.29q-5.17-4.21-6.67-6.5a8.24,8.24,0,0,1-1.51-4.56,7.46,7.46,0,0,1,2.5-5.64,8.69,8.69,0,0,1,6.18-2.35,9.76,9.76,0,0,1,4.5,1.09A16.46,16.46,0,0,1,545.12,218Z"/><path class="cls-1" d="M551.48,213.33h5.86v8.61h3.48v5h-3.48V245.3h-5.86V227h-3v-5h3Z"/><path class="cls-1" d="M562.59,221.94h5v2.94a6.28,6.28,0,0,1,2.17-2.64,5.25,5.25,0,0,1,3-.9,5.51,5.51,0,0,1,2.38.6l-1.83,5a4,4,0,0,0-1.69-.52,2.69,2.69,0,0,0-2.29,1.67q-.93,1.68-.93,6.57l0,1.14v9.45h-5.82Z"/><path class="cls-1" d="M595.27,221.94h5.86V245.3h-5.86v-2.47a11.47,11.47,0,0,1-3.44,2.35,9.65,9.65,0,0,1-3.74.72,10.4,10.4,0,0,1-7.83-3.51,12.26,12.26,0,0,1-3.3-8.73,12.54,12.54,0,0,1,3.2-8.87,10.18,10.18,0,0,1,7.76-3.46,9.91,9.91,0,0,1,3.95.79,10.78,10.78,0,0,1,3.41,2.39Zm-6.16,4.81a5.93,5.93,0,0,0-4.52,1.92,6.93,6.93,0,0,0-1.8,4.93,7,7,0,0,0,1.83,5,5.93,5.93,0,0,0,4.51,2,6,6,0,0,0,4.58-1.92,7,7,0,0,0,1.82-5,6.82,6.82,0,0,0-1.82-4.94A6.12,6.12,0,0,0,589.1,226.75Z"/><path class="cls-1" d="M607.77,213.33h5.86v8.61h3.48v5h-3.48V245.3h-5.86V227h-3v-5h3Z"/><path class="cls-1" d="M643.65,235.32H624.82a6.28,6.28,0,0,0,2.18,4,6.82,6.82,0,0,0,4.52,1.47,7.82,7.82,0,0,0,5.65-2.3l4.94,2.32a11.63,11.63,0,0,1-4.42,3.88,13.84,13.84,0,0,1-6.12,1.26,12.1,12.1,0,0,1-9-3.47,11.8,11.8,0,0,1-3.46-8.69,12.2,12.2,0,0,1,3.44-8.88,11.58,11.58,0,0,1,8.64-3.53,12,12,0,0,1,9,3.53,12.77,12.77,0,0,1,3.46,9.33Zm-5.86-4.62a5.89,5.89,0,0,0-2.29-3.18,6.66,6.66,0,0,0-4-1.22,7,7,0,0,0-4.3,1.37,7.68,7.68,0,0,0-2.15,3Z"/><path class="cls-1" d="M665.66,221.94h5.84v20q0,5.93-2.38,8.72-3.2,3.78-9.64,3.78a16.89,16.89,0,0,1-5.78-.86,10.38,10.38,0,0,1-4-2.52,10.23,10.23,0,0,1-2.38-4h6.46a5.35,5.35,0,0,0,2.21,1.49,9.14,9.14,0,0,0,3.2.5,8.46,8.46,0,0,0,3.8-.73,4.39,4.39,0,0,0,2-1.89,9.55,9.55,0,0,0,.59-4,9.67,9.67,0,0,1-3.24,2.22,10.3,10.3,0,0,1-3.85.68,10.56,10.56,0,0,1-7.94-3.39,13.16,13.16,0,0,1,.19-17.52,10.26,10.26,0,0,1,7.43-3.05,9.85,9.85,0,0,1,3.81.74,12,12,0,0,1,3.6,2.44Zm-6.08,4.88a6.12,6.12,0,0,0-4.57,1.86,6.44,6.44,0,0,0-1.8,4.67,6.53,6.53,0,0,0,1.85,4.79,6.26,6.26,0,0,0,4.64,1.87,6,6,0,0,0,4.5-1.83,6.58,6.58,0,0,0,1.77-4.79,6.51,6.51,0,0,0-1.78-4.74A6.15,6.15,0,0,0,659.58,226.81Z"/><path class="cls-1" d="M679.72,212.32a3.59,3.59,0,0,1,2.65,1.12,3.71,3.71,0,0,1,1.1,2.71,3.66,3.66,0,0,1-1.09,2.67,3.55,3.55,0,0,1-2.61,1.11,3.59,3.59,0,0,1-2.66-1.13,3.77,3.77,0,0,1-1.1-2.74,3.73,3.73,0,0,1,3.73-3.74Zm-2.93,9.62h5.86V245.3h-5.86Z"/><path class="cls-1" d="M711.38,235.32H692.55a6.26,6.26,0,0,0,2.18,4,6.83,6.83,0,0,0,4.52,1.47,7.81,7.81,0,0,0,5.65-2.3l4.94,2.32a11.67,11.67,0,0,1-4.43,3.88,13.83,13.83,0,0,1-6.12,1.26,12.09,12.09,0,0,1-9-3.47,11.81,11.81,0,0,1-3.46-8.69,12.2,12.2,0,0,1,3.45-8.88,11.57,11.57,0,0,1,8.64-3.53,12,12,0,0,1,9,3.53,12.76,12.76,0,0,1,3.46,9.33Zm-5.86-4.62a5.88,5.88,0,0,0-2.29-3.18,6.64,6.64,0,0,0-4-1.22,7,7,0,0,0-4.3,1.37,7.64,7.64,0,0,0-2.15,3Z"/><path class="cls-1" d="M730.43,225.2l-3.63,3.63q-2.21-2.19-4-2.19a2.52,2.52,0,0,0-1.55.42A1.25,1.25,0,0,0,721,229a6.58,6.58,0,0,0,1.75,1.08l2.15,1.07a12.61,12.61,0,0,1,4.66,3.41,7.11,7.11,0,0,1-1,9.28,8.77,8.77,0,0,1-6.13,2.08,9.74,9.74,0,0,1-8.16-4l3.61-3.93a8.31,8.31,0,0,0,2.41,1.94,5.35,5.35,0,0,0,2.46.74,2.94,2.94,0,0,0,1.87-.56,1.63,1.63,0,0,0,.71-1.29q0-1.35-2.56-2.64l-2-1q-5.67-2.86-5.67-7.15a6.21,6.21,0,0,1,2.14-4.74,7.77,7.77,0,0,1,5.47-2,9.46,9.46,0,0,1,7.69,3.87Z"/><path class="cls-2" d="M415.35,79.49c8.18,1,21.38,2.68,34.13,7.66Q420.35,85,391,85q-22.71,0-45.34,1.29a56.35,56.35,0,0,1-5.12-20h0a56,56,0,0,1,11.21-39.07C364.44,10.77,387.49.55,411.94.55c16.11,0,31.5,4.46,43.32,12.57,13.88,9.52,22.49,23.63,24.91,40.82l1,7.38-38.92,1.56-1.23-5.49c-2.8-12.55-17.24-18-30.3-17.75-9.34.19-21.52,3.22-27.65,11.1-3,3.86-3.29,8.72-3,12.12.79,11.45,11.94,14.47,35,16.62Z"/><path class="cls-2" d="M639.19,124.39A799.84,799.84,0,0,0,505,93.16c-4.89-6.85-8.26-15.62-9.16-26.86h0A56,56,0,0,1,507,27.24C519.71,10.77,542.77.55,567.2.55c16.13,0,31.51,4.46,43.33,12.57C624.4,22.63,633,36.74,635.45,53.93l1,7.38-38.93,1.56-1.21-5.49c-2.8-12.55-17.3-18-30.31-17.75-9.32.19-21.5,3.22-27.65,11.1-3,3.86-3.28,8.72-3,12.12.79,11.45,11.92,14.47,35,16.62h.21c17.83,2.23,59.58,7.45,68.3,43.64l.06.27C639.05,123.73,639.13,124.06,639.19,124.39Z"/><path class="cls-1" d="M758.84,188.66c-7.53-3.93-15-7.91-22.62-11.77-7.67-3.67-15.29-7.45-23-11-7.78-3.42-15.52-7-23.35-10.3a763.19,763.19,0,0,0-96.61-33.05,773.5,773.5,0,0,0-100.23-20,781.85,781.85,0,0,0-204.06,0,773.5,773.5,0,0,0-100.23,20,763.22,763.22,0,0,0-96.61,33.05c-7.83,3.32-15.57,6.88-23.35,10.3-7.71,3.6-15.33,7.37-23,11-7.57,3.87-15.08,7.85-22.62,11.78L1,201.27l.74,1.3,22.58-11.69c7.63-3.68,15.22-7.43,22.87-11.06,7.74-3.44,15.44-7,23.21-10.32,7.84-3.18,15.63-6.49,23.51-9.56q27.75-10.87,56.24-19.64a103.31,103.31,0,0,0,19.19,28.9,92.43,92.43,0,0,0,67.46,29c34.66,0,64.21-17.55,81-46.48L285.26,131.6c-10,17.25-27.38,27.25-48.47,27.25a54.57,54.57,0,0,1-39.62-17.31,61.55,61.55,0,0,1-8.93-12l2.18-.57A811.48,811.48,0,0,1,290,110.22q35.53-4.43,71.35-5.72c15.72,11.06,36.65,13.2,49.44,14.5,17.4,1.74,32,3.89,33.93,12.61a22.62,22.62,0,0,1,.61,4.74c0,14-17.58,22.76-33.87,22.76-14.54,0-31.06-7.5-32.36-19.6H379l-.6-9-39.77.78.63,11.86,0,.34c1.75,16.91,10.86,31.26,26.36,41.49a84.58,84.58,0,0,0,45.51,13.44c36.36,0,74-23.13,74-61.84a71.46,71.46,0,0,0-1.42-13.21l-.06-.27a47.29,47.29,0,0,0-6.16-14.58q7.28.78,14.54,1.67a811.45,811.45,0,0,1,99.53,18.72c2.74.7,5.47,1.43,8.21,2.15.05.18.13.34.17.52a22.62,22.62,0,0,1,.61,4.74c0,14-17.58,22.76-33.87,22.76-14.56,0-31.06-7.5-32.36-19.6h-.07l-.6-9-39.75.78.61,11.86,0,.34c1.77,16.91,10.88,31.26,26.36,41.49a84.66,84.66,0,0,0,45.51,13.44c34.37,0,69.82-20.67,73.62-55.6q24.28,7.78,48,17.08c7.88,3.07,15.67,6.38,23.51,9.56,7.77,3.35,15.46,6.88,23.21,10.32,7.65,3.63,15.24,7.38,22.87,11.06l22.58,11.69.74-1.3Z"/><path class="cls-2" d="M236.79,40.92c21.46,0,38.47,9.81,48,27.23l32.68-20.2c-16.34-28.82-45.87-46.37-80.7-46.37a94.63,94.63,0,0,0-67.43,29l-.07.07a101.45,101.45,0,0,0-27.68,69.54,98.35,98.35,0,0,0,2.89,23.7q18.49-6,37.29-11.06a60.49,60.49,0,0,1,15.4-54.55A54.53,54.53,0,0,1,236.79,40.92Z"/></svg>